<mxfile host="app.diagrams.net" agent="Mozilla/5.0 (X11; Linux x86_64) AppleWebKit/537.36 (KHTML, like Gecko) Chrome/120.0.0.0 YaBrowser/24.1.0.0 Safari/537.36" version="24.7.16">
  <diagram name="Page-1" id="c4acf3e9-155e-7222-9cf6-157b1a14988f">
    <mxGraphModel dx="2284" dy="804" grid="1" gridSize="10" guides="1" tooltips="1" connect="1" arrows="1" fold="1" page="1" pageScale="1" pageWidth="850" pageHeight="1100" background="none" math="0" shadow="0">
      <root>
        <mxCell id="0" />
        <mxCell id="1" parent="0" />
        <mxCell id="expAsO69IAa6gz99rEJ6-39" style="edgeStyle=orthogonalEdgeStyle;rounded=0;orthogonalLoop=1;jettySize=auto;html=1;endArrow=halfCircle;endFill=0;" edge="1" parent="1">
          <mxGeometry relative="1" as="geometry">
            <mxPoint x="390" y="242" as="sourcePoint" />
            <mxPoint x="340" y="242" as="targetPoint" />
          </mxGeometry>
        </mxCell>
        <mxCell id="expAsO69IAa6gz99rEJ6-45" value="код DRC Calbire" style="edgeLabel;html=1;align=center;verticalAlign=middle;resizable=0;points=[];rotation=0;" vertex="1" connectable="0" parent="expAsO69IAa6gz99rEJ6-39">
          <mxGeometry x="0.7419" y="1" relative="1" as="geometry">
            <mxPoint x="-3" y="-34" as="offset" />
          </mxGeometry>
        </mxCell>
        <mxCell id="expAsO69IAa6gz99rEJ6-42" style="edgeStyle=orthogonalEdgeStyle;rounded=0;orthogonalLoop=1;jettySize=auto;html=1;endArrow=circle;endFill=0;" edge="1" parent="1">
          <mxGeometry relative="1" as="geometry">
            <mxPoint x="610" y="244" as="targetPoint" />
            <mxPoint x="570" y="244" as="sourcePoint" />
          </mxGeometry>
        </mxCell>
        <mxCell id="expAsO69IAa6gz99rEJ6-50" style="edgeStyle=orthogonalEdgeStyle;rounded=0;orthogonalLoop=1;jettySize=auto;html=1;endArrow=halfCircle;endFill=0;" edge="1" parent="1" source="expAsO69IAa6gz99rEJ6-10">
          <mxGeometry relative="1" as="geometry">
            <mxPoint x="480" y="340" as="targetPoint" />
          </mxGeometry>
        </mxCell>
        <mxCell id="expAsO69IAa6gz99rEJ6-59" value="Конфигурация&lt;div&gt;и настройка&lt;/div&gt;" style="edgeLabel;html=1;align=center;verticalAlign=middle;resizable=0;points=[];" vertex="1" connectable="0" parent="expAsO69IAa6gz99rEJ6-50">
          <mxGeometry x="0.5407" y="-5" relative="1" as="geometry">
            <mxPoint x="55" y="7" as="offset" />
          </mxGeometry>
        </mxCell>
        <mxCell id="expAsO69IAa6gz99rEJ6-10" value="Парсинг" style="html=1;dropTarget=0;whiteSpace=wrap;" vertex="1" parent="1">
          <mxGeometry x="390" y="220" width="180" height="90" as="geometry" />
        </mxCell>
        <mxCell id="expAsO69IAa6gz99rEJ6-11" value="" style="shape=module;jettyWidth=8;jettyHeight=4;" vertex="1" parent="expAsO69IAa6gz99rEJ6-10">
          <mxGeometry x="1" width="20" height="20" relative="1" as="geometry">
            <mxPoint x="-27" y="7" as="offset" />
          </mxGeometry>
        </mxCell>
        <mxCell id="expAsO69IAa6gz99rEJ6-21" style="edgeStyle=orthogonalEdgeStyle;rounded=0;orthogonalLoop=1;jettySize=auto;html=1;endArrow=halfCircle;endFill=0;" edge="1" parent="1" source="expAsO69IAa6gz99rEJ6-12">
          <mxGeometry relative="1" as="geometry">
            <mxPoint x="1140" y="370" as="targetPoint" />
          </mxGeometry>
        </mxCell>
        <mxCell id="expAsO69IAa6gz99rEJ6-24" value="Информация о транлсяции" style="edgeLabel;html=1;align=center;verticalAlign=middle;resizable=0;points=[];" vertex="1" connectable="0" parent="expAsO69IAa6gz99rEJ6-21">
          <mxGeometry x="0.3571" y="-1" relative="1" as="geometry">
            <mxPoint x="89" y="-13" as="offset" />
          </mxGeometry>
        </mxCell>
        <mxCell id="expAsO69IAa6gz99rEJ6-27" style="edgeStyle=orthogonalEdgeStyle;rounded=0;orthogonalLoop=1;jettySize=auto;html=1;endArrow=circle;endFill=0;" edge="1" parent="1" source="expAsO69IAa6gz99rEJ6-12">
          <mxGeometry relative="1" as="geometry">
            <mxPoint x="1300" y="455" as="targetPoint" />
          </mxGeometry>
        </mxCell>
        <mxCell id="expAsO69IAa6gz99rEJ6-28" value="Отчет трансляции" style="edgeLabel;html=1;align=center;verticalAlign=middle;resizable=0;points=[];" vertex="1" connectable="0" parent="expAsO69IAa6gz99rEJ6-27">
          <mxGeometry x="0.9268" y="-5" relative="1" as="geometry">
            <mxPoint x="-8" y="10" as="offset" />
          </mxGeometry>
        </mxCell>
        <mxCell id="expAsO69IAa6gz99rEJ6-63" style="edgeStyle=orthogonalEdgeStyle;rounded=0;orthogonalLoop=1;jettySize=auto;html=1;endArrow=halfCircle;endFill=0;" edge="1" parent="1">
          <mxGeometry relative="1" as="geometry">
            <mxPoint x="1020" y="460" as="targetPoint" />
            <mxPoint x="1050" y="460" as="sourcePoint" />
            <Array as="points">
              <mxPoint x="1035" y="460" />
              <mxPoint x="1035" y="461" />
            </Array>
          </mxGeometry>
        </mxCell>
        <mxCell id="expAsO69IAa6gz99rEJ6-65" value="Конфигурация&lt;div&gt;и настройка&lt;/div&gt;" style="edgeLabel;html=1;align=center;verticalAlign=middle;resizable=0;points=[];" vertex="1" connectable="0" parent="expAsO69IAa6gz99rEJ6-63">
          <mxGeometry x="0.537" y="3" relative="1" as="geometry">
            <mxPoint x="-27" y="-33" as="offset" />
          </mxGeometry>
        </mxCell>
        <mxCell id="expAsO69IAa6gz99rEJ6-12" value="Генерация отчета" style="html=1;dropTarget=0;whiteSpace=wrap;" vertex="1" parent="1">
          <mxGeometry x="1050" y="410" width="180" height="90" as="geometry" />
        </mxCell>
        <mxCell id="expAsO69IAa6gz99rEJ6-13" value="" style="shape=module;jettyWidth=8;jettyHeight=4;" vertex="1" parent="expAsO69IAa6gz99rEJ6-12">
          <mxGeometry x="1" width="20" height="20" relative="1" as="geometry">
            <mxPoint x="-27" y="7" as="offset" />
          </mxGeometry>
        </mxCell>
        <mxCell id="expAsO69IAa6gz99rEJ6-36" style="edgeStyle=orthogonalEdgeStyle;rounded=0;orthogonalLoop=1;jettySize=auto;html=1;endArrow=halfCircle;endFill=0;exitX=0;exitY=0.25;exitDx=0;exitDy=0;" edge="1" parent="1" source="expAsO69IAa6gz99rEJ6-14">
          <mxGeometry relative="1" as="geometry">
            <mxPoint x="30" y="243" as="targetPoint" />
          </mxGeometry>
        </mxCell>
        <mxCell id="expAsO69IAa6gz99rEJ6-37" value="Файл конфигурации" style="edgeLabel;html=1;align=center;verticalAlign=middle;resizable=0;points=[];" vertex="1" connectable="0" parent="expAsO69IAa6gz99rEJ6-36">
          <mxGeometry x="0.9408" y="-2" relative="1" as="geometry">
            <mxPoint x="-4" y="22" as="offset" />
          </mxGeometry>
        </mxCell>
        <mxCell id="expAsO69IAa6gz99rEJ6-40" style="edgeStyle=orthogonalEdgeStyle;rounded=0;orthogonalLoop=1;jettySize=auto;html=1;endArrow=circle;endFill=0;" edge="1" parent="1">
          <mxGeometry relative="1" as="geometry">
            <mxPoint x="340" y="242" as="targetPoint" />
            <mxPoint x="300" y="242" as="sourcePoint" />
          </mxGeometry>
        </mxCell>
        <mxCell id="expAsO69IAa6gz99rEJ6-54" style="edgeStyle=orthogonalEdgeStyle;rounded=0;orthogonalLoop=1;jettySize=auto;html=1;endArrow=circle;endFill=0;" edge="1" parent="1" source="expAsO69IAa6gz99rEJ6-14">
          <mxGeometry relative="1" as="geometry">
            <mxPoint x="480" y="340" as="targetPoint" />
            <Array as="points">
              <mxPoint x="210" y="380" />
              <mxPoint x="481" y="380" />
            </Array>
          </mxGeometry>
        </mxCell>
        <mxCell id="expAsO69IAa6gz99rEJ6-55" style="edgeStyle=orthogonalEdgeStyle;rounded=0;orthogonalLoop=1;jettySize=auto;html=1;endArrow=circle;endFill=0;" edge="1" parent="1" source="expAsO69IAa6gz99rEJ6-14">
          <mxGeometry relative="1" as="geometry">
            <mxPoint x="750" y="350" as="targetPoint" />
            <Array as="points">
              <mxPoint x="210" y="380" />
              <mxPoint x="751" y="380" />
            </Array>
          </mxGeometry>
        </mxCell>
        <mxCell id="expAsO69IAa6gz99rEJ6-56" style="edgeStyle=orthogonalEdgeStyle;rounded=0;orthogonalLoop=1;jettySize=auto;html=1;endArrow=circle;endFill=0;" edge="1" parent="1" source="expAsO69IAa6gz99rEJ6-14">
          <mxGeometry relative="1" as="geometry">
            <mxPoint x="1040" y="350" as="targetPoint" />
            <Array as="points">
              <mxPoint x="210" y="380" />
              <mxPoint x="1041" y="380" />
            </Array>
          </mxGeometry>
        </mxCell>
        <mxCell id="expAsO69IAa6gz99rEJ6-57" value="Конфигурация&lt;div&gt;и настройка&lt;/div&gt;" style="edgeLabel;html=1;align=center;verticalAlign=middle;resizable=0;points=[];" vertex="1" connectable="0" parent="expAsO69IAa6gz99rEJ6-56">
          <mxGeometry x="0.9806" y="4" relative="1" as="geometry">
            <mxPoint x="-46" y="-15" as="offset" />
          </mxGeometry>
        </mxCell>
        <mxCell id="expAsO69IAa6gz99rEJ6-64" style="edgeStyle=orthogonalEdgeStyle;rounded=0;orthogonalLoop=1;jettySize=auto;html=1;endArrow=circle;endFill=0;" edge="1" parent="1" source="expAsO69IAa6gz99rEJ6-14">
          <mxGeometry relative="1" as="geometry">
            <mxPoint x="1020" y="460" as="targetPoint" />
            <Array as="points">
              <mxPoint x="210" y="460" />
            </Array>
          </mxGeometry>
        </mxCell>
        <mxCell id="expAsO69IAa6gz99rEJ6-14" value="Пользовательский интерфейс" style="html=1;dropTarget=0;whiteSpace=wrap;" vertex="1" parent="1">
          <mxGeometry x="120" y="220" width="180" height="90" as="geometry" />
        </mxCell>
        <mxCell id="expAsO69IAa6gz99rEJ6-15" value="" style="shape=module;jettyWidth=8;jettyHeight=4;" vertex="1" parent="expAsO69IAa6gz99rEJ6-14">
          <mxGeometry x="1" width="20" height="20" relative="1" as="geometry">
            <mxPoint x="-27" y="7" as="offset" />
          </mxGeometry>
        </mxCell>
        <mxCell id="expAsO69IAa6gz99rEJ6-31" style="edgeStyle=orthogonalEdgeStyle;rounded=0;orthogonalLoop=1;jettySize=auto;html=1;endArrow=halfCircle;endFill=0;exitX=0;exitY=0.75;exitDx=0;exitDy=0;" edge="1" parent="1">
          <mxGeometry relative="1" as="geometry">
            <mxPoint x="33" y="287" as="targetPoint" />
            <mxPoint x="120" y="286.5" as="sourcePoint" />
            <Array as="points">
              <mxPoint x="120" y="285" />
              <mxPoint x="43" y="285" />
              <mxPoint x="43" y="287" />
            </Array>
          </mxGeometry>
        </mxCell>
        <mxCell id="expAsO69IAa6gz99rEJ6-35" value="Файл DRC Calbire" style="edgeLabel;html=1;align=center;verticalAlign=middle;resizable=0;points=[];" vertex="1" connectable="0" parent="expAsO69IAa6gz99rEJ6-31">
          <mxGeometry x="0.8648" y="-3" relative="1" as="geometry">
            <mxPoint y="28" as="offset" />
          </mxGeometry>
        </mxCell>
        <mxCell id="expAsO69IAa6gz99rEJ6-41" style="edgeStyle=orthogonalEdgeStyle;rounded=0;orthogonalLoop=1;jettySize=auto;html=1;endArrow=halfCircle;endFill=0;" edge="1" parent="1">
          <mxGeometry relative="1" as="geometry">
            <mxPoint x="660" y="244" as="sourcePoint" />
            <mxPoint x="610" y="244" as="targetPoint" />
          </mxGeometry>
        </mxCell>
        <mxCell id="expAsO69IAa6gz99rEJ6-47" value="Структурированные&lt;div&gt;данные&lt;/div&gt;" style="edgeLabel;html=1;align=center;verticalAlign=middle;resizable=0;points=[];rotation=0;" vertex="1" connectable="0" parent="expAsO69IAa6gz99rEJ6-41">
          <mxGeometry x="0.7799" y="3" relative="1" as="geometry">
            <mxPoint x="-2" y="-42" as="offset" />
          </mxGeometry>
        </mxCell>
        <mxCell id="expAsO69IAa6gz99rEJ6-44" style="edgeStyle=orthogonalEdgeStyle;rounded=0;orthogonalLoop=1;jettySize=auto;html=1;endArrow=circle;endFill=0;" edge="1" parent="1">
          <mxGeometry relative="1" as="geometry">
            <mxPoint x="900" y="250" as="targetPoint" />
            <mxPoint x="840" y="250" as="sourcePoint" />
          </mxGeometry>
        </mxCell>
        <mxCell id="expAsO69IAa6gz99rEJ6-52" style="edgeStyle=orthogonalEdgeStyle;rounded=0;orthogonalLoop=1;jettySize=auto;html=1;endArrow=halfCircle;endFill=0;" edge="1" parent="1" source="expAsO69IAa6gz99rEJ6-16">
          <mxGeometry relative="1" as="geometry">
            <mxPoint x="750" y="350" as="targetPoint" />
          </mxGeometry>
        </mxCell>
        <mxCell id="expAsO69IAa6gz99rEJ6-58" value="Конфигурация&lt;div&gt;и настройка&lt;/div&gt;" style="edgeLabel;html=1;align=center;verticalAlign=middle;resizable=0;points=[];" vertex="1" connectable="0" parent="expAsO69IAa6gz99rEJ6-52">
          <mxGeometry x="0.404" y="-3" relative="1" as="geometry">
            <mxPoint x="53" y="5" as="offset" />
          </mxGeometry>
        </mxCell>
        <mxCell id="expAsO69IAa6gz99rEJ6-16" value="Предобработка" style="html=1;dropTarget=0;whiteSpace=wrap;" vertex="1" parent="1">
          <mxGeometry x="660" y="220" width="180" height="90" as="geometry" />
        </mxCell>
        <mxCell id="expAsO69IAa6gz99rEJ6-17" value="" style="shape=module;jettyWidth=8;jettyHeight=4;" vertex="1" parent="expAsO69IAa6gz99rEJ6-16">
          <mxGeometry x="1" width="20" height="20" relative="1" as="geometry">
            <mxPoint x="-27" y="7" as="offset" />
          </mxGeometry>
        </mxCell>
        <mxCell id="expAsO69IAa6gz99rEJ6-22" style="edgeStyle=orthogonalEdgeStyle;rounded=0;orthogonalLoop=1;jettySize=auto;html=1;endArrow=circle;endFill=0;" edge="1" parent="1" source="expAsO69IAa6gz99rEJ6-18">
          <mxGeometry relative="1" as="geometry">
            <mxPoint x="1140" y="380" as="targetPoint" />
            <Array as="points">
              <mxPoint x="1080" y="345" />
              <mxPoint x="1141" y="345" />
            </Array>
          </mxGeometry>
        </mxCell>
        <mxCell id="expAsO69IAa6gz99rEJ6-29" style="edgeStyle=orthogonalEdgeStyle;rounded=0;orthogonalLoop=1;jettySize=auto;html=1;endArrow=circle;endFill=0;" edge="1" parent="1" source="expAsO69IAa6gz99rEJ6-18">
          <mxGeometry relative="1" as="geometry">
            <mxPoint x="1210" y="265" as="targetPoint" />
          </mxGeometry>
        </mxCell>
        <mxCell id="expAsO69IAa6gz99rEJ6-30" value="Файл DRC Klayout" style="edgeLabel;html=1;align=center;verticalAlign=middle;resizable=0;points=[];" vertex="1" connectable="0" parent="expAsO69IAa6gz99rEJ6-29">
          <mxGeometry x="0.8669" y="-2" relative="1" as="geometry">
            <mxPoint x="-5" y="23" as="offset" />
          </mxGeometry>
        </mxCell>
        <mxCell id="expAsO69IAa6gz99rEJ6-43" style="edgeStyle=orthogonalEdgeStyle;rounded=0;orthogonalLoop=1;jettySize=auto;html=1;endArrow=halfCircle;endFill=0;" edge="1" parent="1">
          <mxGeometry relative="1" as="geometry">
            <mxPoint x="950" y="250" as="sourcePoint" />
            <mxPoint x="900" y="250" as="targetPoint" />
          </mxGeometry>
        </mxCell>
        <mxCell id="expAsO69IAa6gz99rEJ6-48" value="Опитмизированные&lt;div&gt;и упорядоченные&lt;/div&gt;&lt;div&gt;данные&lt;/div&gt;" style="edgeLabel;html=1;align=center;verticalAlign=middle;resizable=0;points=[];" vertex="1" connectable="0" parent="expAsO69IAa6gz99rEJ6-43">
          <mxGeometry x="0.36" y="5" relative="1" as="geometry">
            <mxPoint x="-22" y="-45" as="offset" />
          </mxGeometry>
        </mxCell>
        <mxCell id="expAsO69IAa6gz99rEJ6-53" style="edgeStyle=orthogonalEdgeStyle;rounded=0;orthogonalLoop=1;jettySize=auto;html=1;endArrow=halfCircle;endFill=0;" edge="1" parent="1" source="expAsO69IAa6gz99rEJ6-18">
          <mxGeometry relative="1" as="geometry">
            <mxPoint x="1040" y="350" as="targetPoint" />
          </mxGeometry>
        </mxCell>
        <mxCell id="expAsO69IAa6gz99rEJ6-18" value="Конвертация" style="html=1;dropTarget=0;whiteSpace=wrap;" vertex="1" parent="1">
          <mxGeometry x="950" y="220" width="180" height="90" as="geometry" />
        </mxCell>
        <mxCell id="expAsO69IAa6gz99rEJ6-19" value="" style="shape=module;jettyWidth=8;jettyHeight=4;" vertex="1" parent="expAsO69IAa6gz99rEJ6-18">
          <mxGeometry x="1" width="20" height="20" relative="1" as="geometry">
            <mxPoint x="-27" y="7" as="offset" />
          </mxGeometry>
        </mxCell>
        <mxCell id="expAsO69IAa6gz99rEJ6-66" value="Программа-конвертер DRC" style="shape=umlFrame;whiteSpace=wrap;html=1;pointerEvents=0;width=140;height=40;" vertex="1" parent="1">
          <mxGeometry x="90" y="120" width="1260" height="460" as="geometry" />
        </mxCell>
      </root>
    </mxGraphModel>
  </diagram>
</mxfile>
